<svg version="1.1" id="Layer_1" xmlns="http://www.w3.org/2000/svg" xmlns:xlink="http://www.w3.org/1999/xlink" x="0px" y="0px"
	 width="100%" viewBox="0 0 1024 1024" enable-background="new 0 0 1024 1024" xml:space="preserve">
<defs>
  <clipPath id="rounded-corners">
    <rect x="0" y="0" width="1024" height="1024" rx="120" ry="120"/>
  </clipPath>
</defs>
<g clip-path="url(#rounded-corners)">
<path fill="#0483F5" opacity="1.000000" stroke="none"
	d="
M450.730896,559.954834
	C451.259033,559.552246 451.787140,559.149719 453.101898,558.750244
	C465.925110,558.737488 477.961700,558.721802 490.307007,558.798096
	C491.163452,558.644897 491.711121,558.399658 492.416626,557.758484
	C492.574432,540.641418 492.574432,523.920227 492.574432,506.634338
	C423.887390,506.634338 356.014496,506.634338 288.084137,506.634338
	C288.084137,486.620392 288.084137,467.186798 288.084137,447.070007
	C303.769440,447.070007 319.161041,447.070007 334.748657,447.070007
	C334.748657,426.941772 334.748657,407.497101 334.748657,388.052399
	C334.978424,387.611053 335.208191,387.169708 336.161346,386.589844
	C351.618134,386.451294 366.351562,386.451294 381.550964,386.451294
	C381.550964,383.678253 381.543793,381.544250 381.552124,379.410339
	C381.614990,363.267273 381.680939,347.124237 381.745911,330.981171
	C381.745880,330.981171 381.923767,331.012939 382.427368,330.968323
	C398.676300,330.923737 414.421631,330.923737 430.865540,330.923737
	C430.865540,312.532440 430.865540,294.690796 430.865540,276.321106
	C447.124084,276.321106 462.685852,276.321106 478.668793,276.321106
	C478.668793,260.202972 478.668793,244.623840 478.668793,229.044708
	C478.668793,229.044708 478.932983,228.910782 479.441956,228.788910
	C495.675049,228.667038 511.399170,228.667038 527.347534,228.667038
	C527.347534,214.749008 527.534485,201.769867 527.246155,188.801300
	C527.145264,184.260971 528.385132,182.908646 533.045776,182.924911
	C575.684082,183.073837 618.323242,182.968033 660.962158,182.936554
	C660.962158,182.936569 660.985596,183.065521 661.097290,183.513947
	C661.227783,197.947144 661.156433,211.933029 661.329529,225.915894
	C661.372131,229.354477 660.401123,230.704285 656.814026,230.476151
	C652.336792,230.191406 647.827759,230.406036 643.332458,230.405838
	C635.380859,230.405487 627.429199,230.405731 619.166199,230.405731
	C619.166199,247.770584 619.166199,264.374725 619.166199,280.978882
	C619.117126,281.152100 619.068054,281.325287 618.550293,281.882355
	C605.594360,282.330353 593.104004,282.577667 580.621643,282.359711
	C576.215881,282.282806 575.010742,283.565521 575.065063,287.992096
	C575.265076,304.303101 575.007141,320.619720 574.921387,336.934235
	C562.283630,336.934235 549.645874,336.934235 536.396362,336.934235
	C536.396362,355.275940 536.396362,373.188202 536.396362,391.931549
	C527.702881,391.931549 519.598999,391.918243 511.495178,391.934631
	C498.503357,391.960907 498.486603,391.969177 498.459656,404.907257
	C498.435730,416.383423 498.454651,427.859650 498.454651,439.977356
	C569.439880,439.977356 639.956116,439.977356 710.807251,439.977356
	C710.807251,458.853577 710.807251,477.085785 710.807251,495.924133
	C696.478516,495.924133 682.249756,495.924133 667.527771,495.924133
	C667.417908,498.269928 667.266113,500.040344 667.262939,501.811035
	C667.237366,516.138367 667.103210,530.467773 667.321899,544.791748
	C667.382812,548.784729 666.118958,549.915344 662.220581,549.855225
	C648.910828,549.649841 635.595947,549.776611 621.596436,549.776611
	C621.596436,567.494568 621.596436,584.880798 621.596436,602.760864
	C606.008118,602.760864 591.096313,602.760864 575.545654,602.760864
	C575.545654,619.462830 575.545654,635.679138 575.545654,652.604614
	C560.226379,652.604614 545.524780,652.604614 530.310974,652.604614
	C530.310974,669.055664 530.310974,684.804321 530.310974,701.324890
	C515.939026,701.324890 502.068634,701.324890 487.589905,701.324890
	C487.589905,721.310486 487.589905,740.529907 487.589905,760.438599
	C474.517761,760.438599 462.062286,760.438599 449.000793,760.519348
	C448.394806,760.600098 448.058777,760.867188 448.058777,760.867188
	C447.731110,762.563049 447.125488,764.257874 447.118683,765.955017
	C447.048767,783.407959 447.075806,800.861267 447.075806,819.080688
	C434.362976,819.080688 421.858002,819.080688 408.752533,819.080688
	C408.752533,827.721741 408.752533,835.616516 408.752533,843.780396
	C395.557800,843.780396 382.983917,843.780396 369.997986,843.780396
	C369.997986,823.647461 369.997986,803.616089 369.997986,782.715149
	C380.981354,782.715149 392.048035,782.715149 403.887787,782.718384
	C405.085327,782.653137 405.509827,782.584717 405.934296,782.516296
	C406.316986,780.693604 407.024109,778.872437 407.032227,777.048035
	C407.114410,758.580139 407.082367,740.111694 407.082367,721.003845
	C420.406555,721.003845 433.446533,721.003845 446.958801,721.003845
	C446.958801,705.526367 446.958801,690.683472 446.958801,675.259399
	C436.189972,675.259399 425.575073,675.256165 414.960144,675.260620
	C408.196381,675.263489 408.193115,675.268555 408.188263,668.602478
	C408.177063,653.278320 408.162354,637.954102 408.170502,622.629944
	C408.171356,621.008301 408.314911,619.386719 408.423401,617.111938
	C422.177521,617.111938 435.611176,617.111938 449.858032,616.790283
	C450.691132,597.630615 450.711029,578.792725 450.730896,559.954834
z"/>
<path fill="#0784F3" opacity="1.000000" stroke="none"
	d="
M745.992188,603.338562
	C738.359009,603.343079 731.224243,603.343079 723.699829,603.343079
	C723.699829,590.159302 723.699829,577.289673 723.699829,564.030334
	C736.345642,564.030334 748.913086,564.030334 761.868530,564.030334
	C761.868530,576.880188 761.868530,589.757324 761.868530,603.334045
	C756.708984,603.334045 751.599792,603.334045 745.992188,603.338562
z"/>
<path fill="#0683F2" opacity="1.000000" stroke="none"
	d="
M320.156860,711.924316
	C320.157898,701.639893 320.157898,691.845520 320.157898,681.152832
	C323.530487,681.152832 326.598358,681.151978 329.666229,681.153015
	C338.310669,681.155762 346.957825,681.052979 355.596558,681.276794
	C356.897827,681.310547 359.256622,682.848999 359.274139,683.728210
	C359.518188,695.986572 359.439514,708.251343 359.439514,720.713013
	C346.230042,720.713013 333.633270,720.713013 320.155853,720.713013
	C320.155853,717.907654 320.155853,715.160950 320.156860,711.924316
z"/>
<path fill="#0582F2" opacity="1.000000" stroke="none"
	d="
M672.727600,685.627930
	C671.897888,687.027893 671.083435,688.764587 670.243835,688.776794
	C658.117493,688.952942 645.987732,688.897461 633.541809,688.897461
	C633.541809,675.457703 633.541809,662.407837 633.541809,649.076050
	C646.621277,649.076050 659.366333,649.076050 672.731201,649.076050
	C672.731201,661.276062 672.731201,673.219421 672.727600,685.627930
z"/>
<path fill="#0683F2" opacity="1.000000" stroke="none"
	d="
M550.445068,739.310547
	C563.170593,739.221313 575.436157,739.221313 587.967224,739.221313
	C587.967224,752.619629 587.967224,765.508362 587.967224,778.561401
	C574.934753,778.561401 562.211670,778.561401 549.084412,778.561401
	C549.084412,765.684753 549.076660,753.101196 549.122192,740.517761
	C549.123535,740.144104 549.684937,739.772461 550.445068,739.310547
z"/>
<path fill="#0784F3" opacity="1.000000" stroke="none"
	d="
M759.229248,420.089355
	C769.690613,420.071442 779.676392,420.102264 789.661011,420.005707
	C792.210327,419.981079 793.736267,420.466736 793.711426,423.508179
	C793.613586,435.476807 793.671326,447.446716 793.671326,459.916840
	C780.818481,459.916840 768.143311,459.916840 754.915527,459.916840
	C754.915527,447.474792 754.839111,435.041992 755.080566,422.615356
	C755.097351,421.750366 757.473938,420.931244 759.229248,420.089355
z"/>
<path fill="#0784F3" opacity="1.000000" stroke="none"
	d="
M350.972778,560.030518
	C350.972809,556.073303 350.972809,552.609741 350.972809,548.809692
	C363.819885,548.809692 376.219513,548.809692 389.027954,548.809692
	C389.027954,561.887085 389.027954,574.891724 389.027954,588.259033
	C376.511353,588.259033 364.134064,588.259033 350.972717,588.259033
	C350.972717,578.993896 350.972717,569.759033 350.972778,560.030518
z"/>
<path fill="#0784F3" opacity="1.000000" stroke="none"
	d="
M372.837524,276.122101
	C379.711914,276.105774 379.717560,276.105774 379.720306,282.635590
	C379.724915,293.611023 379.721558,304.586426 379.721558,316.007812
	C366.948364,316.007812 354.581665,316.007812 341.840942,316.007812
	C341.840942,302.837219 341.840942,289.789185 341.840942,276.122131
	C352.159912,276.122131 362.259674,276.122131 372.837524,276.122101
z"/>
<path fill="#0785F5" opacity="1.000000" stroke="none"
	d="
M714.505615,267.983643
	C714.506653,259.208344 714.506653,250.929337 714.506653,242.462463
	C727.646729,242.462463 740.057373,242.462463 752.775024,242.462463
	C752.775024,255.664322 752.775024,268.574280 752.775024,281.916565
	C740.183655,281.916565 727.656860,281.916565 714.504578,281.916565
	C714.504578,277.376617 714.504578,272.928284 714.505615,267.983643
z"/>
<path fill="#0683F2" opacity="1.000000" stroke="none"
	d="
M390.067566,212.977692
	C390.067291,203.837402 390.067291,195.192566 390.067291,186.051132
	C402.845428,186.051132 415.353912,186.051132 428.242615,186.051132
	C428.242615,198.779358 428.242615,211.499176 428.242615,224.596008
	C415.692078,224.596008 403.304291,224.596008 390.067841,224.596008
	C390.067841,220.962646 390.067841,217.217896 390.067566,212.977692
z"/>
<path fill="#0885F4" opacity="1.000000" stroke="none"
	d="
M264.120178,374.638794
	C275.880646,374.636627 287.154114,374.636627 298.728149,374.636627
	C298.728149,387.915222 298.728149,400.644379 298.728149,413.781006
	C285.920288,413.781006 273.236908,413.781006 259.936218,413.781006
	C259.936218,401.343231 259.871368,389.081879 260.094452,376.825745
	C260.108093,376.076263 262.400879,375.368286 264.120178,374.638794
z"/>
<path fill="#0784F3" opacity="1.000000" stroke="none"
	d="
M645.487793,367.952393
	C645.490295,358.839325 645.490295,350.218842 645.490295,341.301941
	C658.411438,341.301941 670.799133,341.301941 683.570007,341.301941
	C683.570007,353.891510 683.570007,366.284729 683.570007,379.098145
	C671.163086,379.098145 658.751953,379.098145 645.485291,379.098145
	C645.485291,375.590302 645.485291,372.017670 645.487793,367.952393
z"/>
</g>
</svg>
