<?xml version="1.0" encoding="UTF-8"?>
<svg id="Layer_2" data-name="Layer 2" xmlns="http://www.w3.org/2000/svg" xmlns:xlink="http://www.w3.org/1999/xlink" viewBox="0 0 401.22 279.46">
  <defs>
    <style>
      .cls-1 {
        fill: url(#linear-gradient);
      }
    </style>
    <linearGradient id="linear-gradient" x1="0" y1="139.73" x2="401.22" y2="139.73" gradientUnits="userSpaceOnUse">
      <stop offset="0" stop-color="#00bdf2"/>
      <stop offset=".99" stop-color="#fff200"/>
    </linearGradient>
  </defs>
  <g id="Layer_1-2" data-name="Layer 1">
    <path class="cls-1" d="M15.54,158.09c6.45.9,12.8,2.22,19.05,4.04,2.98.87,5.93,1.84,8.85,2.9,1.53.56,3.33,1.03,4.75,1.82-4.43-2.48,0,0,1.11.51,11.92,5.42,23.16,12.26,33.73,19.98,1.37,1,2.78,1.99,4.1,3.07-4.15-3.36.54.48,1.11.94,2.62,2.12,5.2,4.29,7.75,6.5,5.33,4.62,10.49,9.41,15.55,14.32,10.14,9.83,19.84,20.11,29.53,30.37s19.15,21.31,31.28,28.74c13.65,8.36,31.08,10.59,46.3,5.39,31.11-10.64,47.03-41.32,47.86-72.85.74-27.88-10.73-56.17-30.32-75.94-10.33-10.43-23.12-17.96-35.38-25.84-2.94-1.88-5.85-3.8-8.69-5.84-1.11-.8-5.24-2.73-.71-.49-1.08-.54-2.14-1.77-3.05-2.57-2.19-1.93-4.28-3.96-6.23-6.12l-1.04-1.19c-1.5-1.82-1.36-1.6.43.66-1.07-.81-1.81-2.77-2.59-3.91-15.44-22.6,1.12-36.8,1.41-36.77-.26-.03-3.37,3.73-.33.79,2.76-2.67.71.55-.83.33.47.07,2.86-1.88,3.36-2.16l1.18-.63c2.08-.99,1.59-.81-1.45.53.31.22,3.21-1.07,3.87-1.24.74-.2,3.5-.36,4.01-.85l-2.99.42c.91-.09,1.83-.15,2.74-.18,1.38-.04,2.75.07,4.13.06,4.64-.02-3.88-.87-.95-.2,2.68.62,5.24,1.33,7.87,2.14,4.95,1.53-3.82-2.26.66.33,1.37.79,2.8,1.47,4.16,2.28s2.65,1.75,3.99,2.59c4.5,2.81-3.29-3,.73.5,2.22,1.94,4.43,3.86,6.53,5.94,4.57,4.54,8.7,9.48,12.66,14.56-3.1-3.97.53.74.95,1.3,1.42,1.9,2.84,3.8,4.26,5.7,2.87,3.84,5.78,7.66,8.73,11.44,4.51,5.77,9.21,11.37,14.47,16.47,10.5,10.17,22.7,19.04,35.74,25.68,26.27,13.38,56.4,20,85.84,16.64,11.14-1.27,22.06-8.98,21.5-21.5-.47-10.56-9.53-22.86-21.5-21.5-5.64.64-11.3.96-16.98.87-3.09-.05-6.18-.22-9.26-.49-1.44-.13-3.22-.09-4.61-.49,5.41,1.57,1.01.1-.4-.15-5.59-.97-11.12-2.3-16.54-3.97-2.96-.91-5.89-1.92-8.77-3.04-1.37-.53-5.75-1.29-.59-.19-1.41-.3-2.94-1.32-4.22-1.94-5.11-2.46-10.07-5.24-14.83-8.33-2.5-1.62-5.43-3.26-7.59-5.32,3.6,3.44,1.15.87.11,0-1.39-1.15-2.76-2.32-4.1-3.53-4.39-3.95-8.47-8.22-12.29-12.72-1.15-1.36-2.25-2.75-3.38-4.12-3.78-4.57,2.57,3.48-1-1.26-2.14-2.84-4.27-5.69-6.4-8.54C252.08,29.63,231.97,5.4,202.5.9c-14.63-2.23-29.96-.5-42.79,7.41-13.36,8.24-22.18,21.82-24.9,37.24s-4.02,33.05,2.02,48.05c5.8,14.4,15.41,25.76,27.62,35.19,10.86,8.39,22.76,15.17,34.01,23,4.78,3.33-3.12-2.89,1.26.96,1.28,1.12,2.6,2.2,3.84,3.36,1.9,1.77,3.71,3.64,5.43,5.59.7.8,4.41,4.51.57.48,1.03,1.08,1.88,2.57,2.7,3.82,1.73,2.6,22.07,19.84,13.09,48.7-.48,1.55-4.45,14.92-15.11,20.11s-19.76-3.3-27.72-9.89c-2.74-2.27-12.09-11.18-14.54-13.75-42.61-44.68-76.31-85.57-141.02-94.55-5.99-.83-11.12-1.02-16.57,2.17-4.46,2.61-8.71,7.72-9.88,12.85-2.31,10.13,3.1,24.79,15.02,26.45h0Z"/>
  </g>
</svg>